<svg width="16" height="16" viewBox="0 0 16 16" fill="none" xmlns="http://www.w3.org/2000/svg">
<path d="M10.6667 1.33301V2.66634" stroke="#0B3857" stroke-width="1.16667" stroke-linecap="round" stroke-linejoin="round"/>
<path d="M4.66675 14.6667V13.3333C4.66675 12.9797 4.80722 12.6406 5.05727 12.3905C5.30732 12.1405 5.64646 12 6.00008 12H10.0001C10.3537 12 10.6928 12.1405 10.9429 12.3905C11.1929 12.6406 11.3334 12.9797 11.3334 13.3333V14.6667" stroke="#0B3857" stroke-width="1.16667" stroke-linecap="round" stroke-linejoin="round"/>
<path d="M5.33325 1.33301V2.66634" stroke="#0B3857" stroke-width="1.16667" stroke-linecap="round" stroke-linejoin="round"/>
<path d="M8 9.33301C9.10457 9.33301 10 8.43758 10 7.33301C10 6.22844 9.10457 5.33301 8 5.33301C6.89543 5.33301 6 6.22844 6 7.33301C6 8.43758 6.89543 9.33301 8 9.33301Z" stroke="#0B3857" stroke-width="1.16667" stroke-linecap="round" stroke-linejoin="round"/>
<path d="M12.6667 2.66699H3.33333C2.59695 2.66699 2 3.26395 2 4.00033V13.3337C2 14.07 2.59695 14.667 3.33333 14.667H12.6667C13.403 14.667 14 14.07 14 13.3337V4.00033C14 3.26395 13.403 2.66699 12.6667 2.66699Z" stroke="#0B3857" stroke-width="1.16667" stroke-linecap="round" stroke-linejoin="round"/>
</svg>
